<svg xmlns="http://www.w3.org/2000/svg" viewBox="0 0 192 192" width="192" height="192">
  <rect width="192" height="192" rx="38" fill="#d97706"/>
  <g fill="#fff" stroke="#fff" stroke-width="0" stroke-linecap="round" stroke-linejoin="round">
    <path d="M58 50 v60 a14 14 0 0 0 14 14 h2 v18 a8 8 0 0 0 16 0 v-18 h2 a14 14 0 0 0 14 -14 v-60 a4 4 0 0 0 -8 0 v40 a4 4 0 0 1 -8 0 v-40 a4 4 0 0 0 -8 0 v40 a4 4 0 0 1 -8 0 v-40 a4 4 0 0 0 -8 0 z"/>
    <path d="M125 50 c-10 0 -18 14 -18 32 c0 14 6 22 14 24 v36 a8 8 0 0 0 16 0 v-90 a2 2 0 0 0 -2 -2 z" />
  </g>
</svg>
